<?xml version="1.0" standalone="no"?>
<!DOCTYPE svg PUBLIC "-//W3C//DTD SVG 20010904//EN"
 "http://www.w3.org/TR/2001/REC-SVG-20010904/DTD/svg10.dtd">
<svg version="1.0" xmlns="http://www.w3.org/2000/svg"
 width="500.000000pt" height="500.000000pt" viewBox="0 0 500.000000 500.000000"
 preserveAspectRatio="xMidYMid meet">

<g transform="translate(0.000000,500.000000) scale(0.100000,-0.100000)"
fill="#000000" stroke="none">
<path d="M1270 4060 c0 -12 10 -16 65 -25 56 -10 106 -65 128 -141 10 -32 23
-119 29 -191 8 -96 15 -133 25 -133 9 0 13 36 15 153 l3 154 501 -1076 c276
-592 508 -1077 515 -1079 10 -2 46 84 121 285 59 159 237 639 396 1068 160
429 301 809 316 845 l25 65 -3 -1070 c-3 -1166 -3 -1173 -60 -1269 -31 -53
-65 -76 -124 -85 -25 -3 -47 -12 -50 -19 -3 -9 70 -12 343 -12 273 0 346 3
343 13 -3 6 -23 15 -47 18 -48 6 -87 32 -119 79 -59 87 -62 144 -62 1160 0
1016 3 1073 62 1160 32 47 71 73 119 79 24 3 44 12 47 19 3 9 -46 12 -220 12
l-225 0 -379 -1020 c-208 -561 -381 -1020 -384 -1020 -3 0 -223 459 -490 1020
l-485 1020 -202 0 c-133 0 -203 -4 -203 -10z"/>
<path d="M1481 3400 c0 -3 8 -30 19 -60 11 -30 19 -46 19 -35 0 17 -37 109
-38 95z"/>
<path d="M1520 3269 c0 -7 -10 -9 -26 -5 -23 6 -24 5 -13 -15 7 -15 8 -24 1
-28 -13 -8 -3 -25 21 -34 20 -7 21 -3 7 24 -8 15 -7 23 5 35 14 15 20 34 10
34 -3 0 -5 -5 -5 -11z"/>
<path d="M1496 3165 c20 -58 15 -82 -13 -54 -7 7 -13 8 -17 0 -7 -11 33 -81
47 -81 11 0 8 14 -9 38 -14 20 -14 22 0 22 20 0 20 37 0 70 -10 17 -13 18 -8
5z"/>
<path d="M1455 3024 c5 -10 10 -37 10 -59 1 -22 6 -49 12 -60 24 -46 54 -154
51 -186 -3 -34 -7 -37 -42 -23 -14 6 -17 4 -11 -6 12 -19 14 -90 2 -90 -6 0
-2 -9 8 -20 22 -25 40 -26 30 -2 -4 9 -11 34 -15 54 -6 33 -5 37 14 40 37 5
33 80 -10 191 -5 13 -2 16 11 11 15 -6 13 0 -8 37 -13 24 -28 61 -31 81 -4 21
-12 40 -18 44 -8 5 -9 2 -3 -12z"/>
<path d="M1061 3014 c0 -11 3 -14 6 -6 3 7 2 16 -1 19 -3 4 -6 -2 -5 -13z"/>
<path d="M1063 2830 c0 -25 2 -35 4 -22 2 12 2 32 0 45 -2 12 -4 2 -4 -23z"/>
<path d="M1080 2861 c0 -32 562 -540 645 -583 29 -15 16 -3 -135 122 -151 126
-460 408 -490 449 -11 14 -20 20 -20 12z"/>
<path d="M1070 2768 c0 -19 30 -101 36 -96 1 2 -6 28 -16 58 -11 30 -19 47
-20 38z"/>
<path d="M1110 2653 c0 -5 10 -18 23 -29 l22 -19 -20 25 c-11 14 -21 27 -22
29 -2 2 -3 0 -3 -6z"/>
<path d="M1753 2320 c0 -36 2 -50 4 -32 2 17 2 47 0 65 -2 17 -4 3 -4 -33z"/>
<path d="M1500 2113 c-1 -403 -55 -553 -200 -553 -20 0 -30 -5 -30 -15 0 -13
45 -15 341 -15 268 0 340 3 337 12 -3 7 -25 16 -49 19 -65 10 -112 33 -164 80
-105 97 -170 281 -200 567 -5 43 -11 62 -21 62 -11 0 -14 -29 -14 -157z"/>
<path d="M1762 2220 c0 -14 2 -19 5 -12 2 6 2 18 0 25 -3 6 -5 1 -5 -13z"/>
<path d="M1771 2180 c0 -8 4 -22 9 -30 12 -18 12 -2 0 25 -6 13 -9 15 -9 5z"/>
<path d="M1802 2114 c10 -10 20 -16 22 -13 3 3 -5 11 -17 18 -21 13 -21 12 -5
-5z"/>
</g>
</svg>
